<svg xmlns="http://www.w3.org/2000/svg" viewBox="0 0 800 600" width="800" height="600">
  <defs>
    <linearGradient id="heroGradient" x1="0%" y1="0%" x2="100%" y2="100%">
      <stop offset="0%" style="stop-color:#667eea;stop-opacity:0.8" />
      <stop offset="100%" style="stop-color:#764ba2;stop-opacity:0.8" />
    </linearGradient>
    <linearGradient id="screenGradient" x1="0%" y1="0%" x2="100%" y2="100%">
      <stop offset="0%" style="stop-color:#1a1a1a;stop-opacity:1" />
      <stop offset="100%" style="stop-color:#2a2a2a;stop-opacity:1" />
    </linearGradient>
    <filter id="glow" x="-50%" y="-50%" width="200%" height="200%">
      <feGaussianBlur stdDeviation="4" result="coloredBlur"/>
      <feMerge> 
        <feMergeNode in="coloredBlur"/>
        <feMergeNode in="SourceGraphic"/>
      </feMerge>
    </filter>
  </defs>
  
  <!-- Background -->
  <rect width="800" height="600" fill="url(#heroGradient)"/>
  
  <!-- Grid Pattern -->
  <pattern id="grid" width="40" height="40" patternUnits="userSpaceOnUse">
    <path d="M 40 0 L 0 0 0 40" fill="none" stroke="rgba(255,255,255,0.1)" stroke-width="1"/>
  </pattern>
  <rect width="800" height="600" fill="url(#grid)"/>
  
  <!-- Central Monitor/Screen -->
  <g transform="translate(400, 300)">
    <!-- Monitor Base -->
    <rect x="-200" y="-120" width="400" height="240" rx="15" fill="#2a2a2a" stroke="#555" stroke-width="2"/>
    
    <!-- Screen -->
    <rect x="-180" y="-100" width="360" height="200" rx="5" fill="url(#screenGradient)"/>
    
    <!-- Screen Content - StaffMode Interface -->
    <g transform="translate(0, -50)">
      <!-- Title Bar -->
      <rect x="-170" y="-40" width="340" height="25" fill="#0d6efd" opacity="0.9"/>
      <text x="-160" y="-22" font-family="Arial, sans-serif" font-size="12" fill="white" font-weight="bold">StaffMode v1.0 - Admin Panel</text>
      
      <!-- Window Controls -->
      <circle cx="150" cy="-27" r="4" fill="#ff5555"/>
      <circle cx="135" cy="-27" r="4" fill="#ffaa00"/>
      <circle cx="120" cy="-27" r="4" fill="#55ff55"/>
      
      <!-- Menu Items -->
      <rect x="-170" y="-10" width="340" height="2" fill="#444"/>
      
      <!-- Player List -->
      <text x="-160" y="5" font-family="Arial, sans-serif" font-size="10" fill="#55ff55">Online Players (3):</text>
      <text x="-160" y="20" font-family="Arial, sans-serif" font-size="9" fill="#ffffff">• Player1 [STAFF]</text>
      <text x="-160" y="32" font-family="Arial, sans-serif" font-size="9" fill="#ffffff">• Player2 [FROZEN]</text>
      <text x="-160" y="44" font-family="Arial, sans-serif" font-size="9" fill="#ffffff">• Player3</text>
      
      <!-- Staff Tools -->
      <text x="-160" y="65" font-family="Arial, sans-serif" font-size="10" fill="#ffaa00">Staff Tools:</text>
      <rect x="-160" y="70" width="60" height="15" fill="#0d6efd" rx="3"/>
      <text x="-130" y="80" font-family="Arial, sans-serif" font-size="8" fill="white" text-anchor="middle">Freeze</text>
      
      <rect x="-90" y="70" width="60" height="15" fill="#198754" rx="3"/>
      <text x="-60" y="80" font-family="Arial, sans-serif" font-size="8" fill="white" text-anchor="middle">Teleport</text>
      
      <rect x="-20" y="70" width="60" height="15" fill="#dc3545" rx="3"/>
      <text x="10" y="80" font-family="Arial, sans-serif" font-size="8" fill="white" text-anchor="middle">Ban</text>
      
      <!-- Status Bar -->
      <rect x="-170" y="88" width="340" height="2" fill="#444"/>
      <text x="-160" y="102" font-family="Arial, sans-serif" font-size="8" fill="#55ff55">Status: Staff Mode Active</text>
      <text x="100" y="102" font-family="Arial, sans-serif" font-size="8" fill="#ffffff">TPS: 20.0</text>
    </g>
    
    <!-- Monitor Stand -->
    <rect x="-15" y="125" width="30" height="40" fill="#2a2a2a"/>
    <ellipse cx="0" cy="170" rx="50" ry="8" fill="#1a1a1a"/>
  </g>
  
  <!-- Floating UI Elements -->
  <g transform="translate(150, 150)">
    <!-- Settings Panel -->
    <rect x="0" y="0" width="120" height="80" rx="8" fill="#ffffff" opacity="0.95" filter="url(#glow)"/>
    <rect x="5" y="5" width="110" height="15" fill="#0d6efd" rx="3"/>
    <text x="60" y="15" font-family="Arial, sans-serif" font-size="10" fill="white" text-anchor="middle">Settings</text>
    
    <!-- Toggle Switches -->
    <rect x="10" y="25" width="30" height="8" fill="#ddd" rx="4"/>
    <circle cx="35" cy="29" r="4" fill="#0d6efd"/>
    <text x="45" y="31" font-family="Arial, sans-serif" font-size="8" fill="#333">Freeze Mode</text>
    
    <rect x="10" y="40" width="30" height="8" fill="#ddd" rx="4"/>
    <circle cx="15" cy="44" r="4" fill="#ccc"/>
    <text x="45" y="46" font-family="Arial, sans-serif" font-size="8" fill="#333">Item Protection</text>
    
    <rect x="10" y="55" width="30" height="8" fill="#ddd" rx="4"/>
    <circle cx="35" cy="59" r="4" fill="#0d6efd"/>
    <text x="45" y="61" font-family="Arial, sans-serif" font-size="8" fill="#333">UI Enabled</text>
  </g>
  
  <!-- Player Card -->
  <g transform="translate(600, 200)">
    <rect x="0" y="0" width="100" height="60" rx="8" fill="#ffffff" opacity="0.95" filter="url(#glow)"/>
    <rect x="5" y="5" width="90" height="12" fill="#198754" rx="3"/>
    <text x="50" y="13" font-family="Arial, sans-serif" font-size="9" fill="white" text-anchor="middle">Player2</text>
    
    <!-- Player Info -->
    <text x="10" y="28" font-family="Arial, sans-serif" font-size="7" fill="#333">Status: FROZEN</text>
    <text x="10" y="38" font-family="Arial, sans-serif" font-size="7" fill="#333">Health: 20/20</text>
    
    <!-- Action Buttons -->
    <rect x="10" y="45" width="35" height="10" fill="#dc3545" rx="2"/>
    <text x="27" y="52" font-family="Arial, sans-serif" font-size="6" fill="white" text-anchor="middle">Unfreeze</text>
    
    <rect x="55" y="45" width="35" height="10" fill="#0d6efd" rx="2"/>
    <text x="72" y="52" font-family="Arial, sans-serif" font-size="6" fill="white" text-anchor="middle">Teleport</text>
  </g>
  
  <!-- Notification -->
  <g transform="translate(100, 450)">
    <rect x="0" y="0" width="200" height="30" rx="15" fill="#198754" opacity="0.95" filter="url(#glow)"/>
    <circle cx="20" cy="15" r="6" fill="#ffffff"/>
    <path d="M 17 15 L 19 17 L 23 13" stroke="#198754" stroke-width="2" fill="none"/>
    <text x="35" y="18" font-family="Arial, sans-serif" font-size="10" fill="white">Staff mode activated!</text>
  </g>
  
  <!-- Decorative Elements -->
  <g opacity="0.3">
    <!-- Connecting Lines -->
    <line x1="270" y1="200" x2="400" y2="180" stroke="#ffffff" stroke-width="2" stroke-dasharray="5,5"/>
    <line x1="530" y1="230" x2="600" y2="200" stroke="#ffffff" stroke-width="2" stroke-dasharray="5,5"/>
    <line x1="300" y1="450" x2="400" y2="420" stroke="#ffffff" stroke-width="2" stroke-dasharray="5,5"/>
    
    <!-- Floating Particles -->
    <circle cx="100" cy="100" r="3" fill="#ffffff" opacity="0.6"/>
    <circle cx="700" cy="150" r="2" fill="#ffffff" opacity="0.4"/>
    <circle cx="150" cy="500" r="4" fill="#ffffff" opacity="0.5"/>
    <circle cx="650" cy="450" r="3" fill="#ffffff" opacity="0.6"/>
    <circle cx="750" cy="350" r="2" fill="#ffffff" opacity="0.4"/>
  </g>
</svg>
