<svg xmlns="http://www.w3.org/2000/svg" viewBox="0 0 64 64" width="64" height="64">
  <defs>
    <linearGradient id="logoGradient" x1="0%" y1="0%" x2="100%" y2="100%">
      <stop offset="0%" style="stop-color:#0d6efd;stop-opacity:1" />
      <stop offset="100%" style="stop-color:#0b5ed7;stop-opacity:1" />
    </linearGradient>
    <filter id="glow">
      <feGaussianBlur stdDeviation="2" result="coloredBlur"/>
      <feMerge> 
        <feMergeNode in="coloredBlur"/>
        <feMergeNode in="SourceGraphic"/>
      </feMerge>
    </filter>
  </defs>
  
  <!-- Background Circle -->
  <circle cx="32" cy="32" r="30" fill="url(#logoGradient)" filter="url(#glow)"/>
  
  <!-- Staff Symbol -->
  <g transform="translate(32, 32)">
    <!-- Staff Rod -->
    <rect x="-2" y="-20" width="4" height="40" fill="#ffffff" opacity="0.9"/>
    
    <!-- Staff Head - Shield -->
    <path d="M -10 -20 L 0 -25 L 10 -20 L 10 -10 L 0 -5 L -10 -10 Z" fill="#ffffff" opacity="0.9"/>
    
    <!-- Staff Head - Inner Design -->
    <path d="M -6 -18 L 0 -21 L 6 -18 L 6 -12 L 0 -9 L -6 -12 Z" fill="url(#logoGradient)"/>
    
    <!-- Staff Bottom -->
    <rect x="-3" y="18" width="6" height="4" fill="#ffffff" opacity="0.9"/>
    
    <!-- Power Lines -->
    <line x1="-8" y1="-5" x2="-15" y2="-8" stroke="#ffffff" stroke-width="2" opacity="0.7"/>
    <line x1="8" y1="-5" x2="15" y2="-8" stroke="#ffffff" stroke-width="2" opacity="0.7"/>
    <line x1="-8" y1="5" x2="-15" y2="8" stroke="#ffffff" stroke-width="2" opacity="0.7"/>
    <line x1="8" y1="5" x2="15" y2="8" stroke="#ffffff" stroke-width="2" opacity="0.7"/>
    
    <!-- Central Orb -->
    <circle cx="0" cy="0" r="4" fill="#ffffff" opacity="0.8"/>
    <circle cx="0" cy="0" r="2" fill="url(#logoGradient)"/>
  </g>
  
  <!-- Outer Ring -->
  <circle cx="32" cy="32" r="30" fill="none" stroke="#ffffff" stroke-width="2" opacity="0.3"/>
</svg>
